<svg viewBox="0 0 192 192"><path d="m125.6 151.9c-1-1-2.5-1-3.5 0l-23.6 23.6v-105.5c0-1.4-1.1-2.5-2.5-2.5s-2.5 1.1-2.5 2.5v105.5l-23.6-23.6c-1-1-2.5-1-3.5 0s-1 2.5 0 3.5l27.9 27.9c.5.5 1.1.7 1.8.7s1.3-.2 1.8-.7l27.9-27.9c.8-1 .8-2.6-.2-3.5z"/><path d="m154.8 53.7c-.5-26.4-22.1-47.7-48.5-47.7-17.5 0-33.9 10-42.3 25.7-3-1.2-6.1-1.8-9.4-1.8-12 0-22.7 9-25.4 21.1-14.8 5.7-24.2 19.3-24.2 34.9 0 21.3 17 38.6 37.8 38.6h33.2v-5h-33.2c-18.1 0-32.8-15.1-32.8-33.6 0-13.9 8.7-26 22.2-30.7.9-.3 1.5-1 1.6-1.9 1.8-10.5 10.7-18.4 20.7-18.4 3.3 0 6.5.8 9.4 2.3.6.3 1.3.4 1.9.1.6-.2 1.2-.7 1.4-1.3 7.2-15.2 22.5-25 38.9-25 24 0 43.5 19.6 43.5 43.7v.5.9c0 1.4 1.1 2.5 2.5 2.5 16.4 0 29.3 13.3 29.3 30.2 0 16.6-13.6 30.7-29.8 30.7h-35.6v5h35.7c18.9 0 34.8-16.4 34.8-35.7 0-18.5-14-33.7-31.7-35.1z"/></svg>